# xmcd
#
# Track frame offsets: 
#        150
#        25436
#        32594
#        53445
#        65296
#        78647
#        90179
#        109380
#        120406
#        133120
#        151268
#        164504
#        179279
#        198264
#        208422
#        224343
#
# Disc length: 3127 seconds
#
# Revision: 0
# Processed by: cddbd v1.5.2PL0 Copyright (c) Steve Scherf et al.
# Submitted via: ExactAudioCopy v0.99pb3
#
DISCID=da0c3510
DTITLE=NED - Sulle Tracce di NED
DYEAR=2006
DGENRE=Ambient
TTITLE0=Traccia Vellicante
TTITLE1=Traccia Che Pulsa
TTITLE2=Traccia Vuota
TTITLE3=Traccia Sulla Parete
TTITLE4=Traccia Ghiacciata
TTITLE5=Traccia Del Bradipo
TTITLE6=Traccia Nello Spazio
TTITLE7=Traccia Ignota
TTITLE8=Traccia Sfuggente
TTITLE9=Traccia Magmatica
TTITLE10=Traccia Nel Tempo
TTITLE11=Traccia Transistor
TTITLE12=Traccia Nella Cava
TTITLE13=Traccia Nel Formicaio
TTITLE14=Traccia D'Estinzione
TTITLE15=Traccia Sul Massacro
EXTD=
EXTT0=
EXTT1=
EXTT2=
EXTT3=
EXTT4=
EXTT5=
EXTT6=
EXTT7=
EXTT8=
EXTT9=
EXTT10=
EXTT11=
EXTT12=
EXTT13=
EXTT14=
EXTT15=
PLAYORDER=
